REM DIRINDEX 1\2,1\3,1\4,1\5,1\6
REM DIRNAME cjc030,folder01,folder02,folder03,folder04,folder05
TITLE ""
FILE "Disc1Track72.mp3" MP3
  TRACK 01 AUDIO
    TITLE "3:cjc030_01881"
    INDEX 01 00:00:00
  TRACK 02 AUDIO
    TITLE "0:"
    INDEX 01 00:00:68
  TRACK 03 AUDIO
    TITLE "4:cjc030_01882"
    INDEX 01 00:01:03
  TRACK 04 AUDIO
    TITLE "0:"
    INDEX 01 00:02:67
  TRACK 05 AUDIO
    TITLE "5:cjc030_01883"
    INDEX 01 00:02:71
  TRACK 06 AUDIO
    TITLE "0:"
    INDEX 01 00:03:70
  TRACK 07 AUDIO
    TITLE "6:cjc030_01884"
    INDEX 01 00:04:07
  TRACK 08 AUDIO
    TITLE "0:"
    INDEX 01 00:06:59
  TRACK 09 AUDIO
    TITLE "3:cjc030_01885"
    INDEX 01 00:07:39
  TRACK 10 AUDIO
    TITLE "0:"
    INDEX 01 00:08:36
  TRACK 11 AUDIO
    TITLE "4:cjc030_01886"
    INDEX 01 00:08:48
  TRACK 12 AUDIO
    TITLE "0:"
    INDEX 01 00:09:42
  TRACK 13 AUDIO
    TITLE "5:cjc030_01887"
    INDEX 01 00:09:45
  TRACK 14 AUDIO
    TITLE "0:"
    INDEX 01 00:10:53
  TRACK 15 AUDIO
    TITLE "3:cjc030_01888"
    INDEX 01 00:11:35
  TRACK 16 AUDIO
    TITLE "0:"
    INDEX 01 00:12:44
  TRACK 17 AUDIO
    TITLE "4:cjc030_01889"
    INDEX 01 00:12:52
  TRACK 18 AUDIO
    TITLE "0:"
    INDEX 01 00:13:39
  TRACK 19 AUDIO
    TITLE "5:cjc030_01890"
    INDEX 01 00:13:47
  TRACK 20 AUDIO
    TITLE "0:"
    INDEX 01 00:14:58
  TRACK 21 AUDIO
    TITLE "6:cjc030_01891"
    INDEX 01 00:14:70
  TRACK 22 AUDIO
    TITLE "0:"
    INDEX 01 00:17:35
  TRACK 23 AUDIO
    TITLE "3:cjc030_01892"
    INDEX 01 00:18:09
  TRACK 24 AUDIO
    TITLE "0:"
    INDEX 01 00:19:24
  TRACK 25 AUDIO
    TITLE "4:cjc030_01893"
    INDEX 01 00:19:32
  TRACK 26 AUDIO
    TITLE "0:"
    INDEX 01 00:20:26
  TRACK 27 AUDIO
    TITLE "5:cjc030_01894"
    INDEX 01 00:20:32
  TRACK 28 AUDIO
    TITLE "0:"
    INDEX 01 00:21:47
  TRACK 29 AUDIO
    TITLE "3:cjc030_01895"
    INDEX 01 00:22:32
  TRACK 30 AUDIO
    TITLE "0:"
    INDEX 01 00:23:40
  TRACK 31 AUDIO
    TITLE "4:cjc030_01896"
    INDEX 01 00:23:48
  TRACK 32 AUDIO
    TITLE "0:"
    INDEX 01 00:25:07
  TRACK 33 AUDIO
    TITLE "5:cjc030_01897"
    INDEX 01 00:25:15
  TRACK 34 AUDIO
    TITLE "0:"
    INDEX 01 00:26:24
  TRACK 35 AUDIO
    TITLE "6:cjc030_01898"
    INDEX 01 00:26:34
  TRACK 36 AUDIO
    TITLE "0:"
    INDEX 01 00:31:43
  TRACK 37 AUDIO
    TITLE "3:cjc030_01899"
    INDEX 01 00:32:13
  TRACK 38 AUDIO
    TITLE "0:"
    INDEX 01 00:33:19
  TRACK 39 AUDIO
    TITLE "4:cjc030_01900"
    INDEX 01 00:33:28
  TRACK 40 AUDIO
    TITLE "0:"
    INDEX 01 00:34:32
  TRACK 41 AUDIO
    TITLE "5:cjc030_01901"
    INDEX 01 00:34:38
  TRACK 42 AUDIO
    TITLE "0:"
    INDEX 01 00:35:43
  TRACK 43 AUDIO
    TITLE "6:cjc030_01902"
    INDEX 01 00:35:59
  TRACK 44 AUDIO
    TITLE "0:"
    INDEX 01 00:41:20
  TRACK 45 AUDIO
    TITLE "3:cjc030_01903"
    INDEX 01 00:41:69
  TRACK 46 AUDIO
    TITLE "0:"
    INDEX 01 00:43:19
  TRACK 47 AUDIO
    TITLE "4:cjc030_01904"
    INDEX 01 00:43:27
  TRACK 48 AUDIO
    TITLE "0:"
    INDEX 01 00:44:48
  TRACK 49 AUDIO
    TITLE "5:cjc030_01905"
    INDEX 01 00:44:56
  TRACK 50 AUDIO
    TITLE "0:"
    INDEX 01 00:46:09
  TRACK 51 AUDIO
    TITLE "3:cjc030_01906"
    INDEX 01 00:46:62
  TRACK 52 AUDIO
    TITLE "0:"
    INDEX 01 00:48:04
  TRACK 53 AUDIO
    TITLE "4:cjc030_01907"
    INDEX 01 00:48:14
  TRACK 54 AUDIO
    TITLE "0:"
    INDEX 01 00:48:73
  TRACK 55 AUDIO
    TITLE "5:cjc030_01908"
    INDEX 01 00:49:06
  TRACK 56 AUDIO
    TITLE "0:"
    INDEX 01 00:50:23
  TRACK 57 AUDIO
    TITLE "3:cjc030_01909"
    INDEX 01 00:51:03
  TRACK 58 AUDIO
    TITLE "0:"
    INDEX 01 00:52:16
  TRACK 59 AUDIO
    TITLE "4:cjc030_01910"
    INDEX 01 00:52:24
  TRACK 60 AUDIO
    TITLE "0:"
    INDEX 01 00:53:23
  TRACK 61 AUDIO
    TITLE "5:cjc030_01911"
    INDEX 01 00:53:33
  TRACK 62 AUDIO
    TITLE "0:"
    INDEX 01 00:54:48
  TRACK 63 AUDIO
    TITLE "3:cjc030_01912"
    INDEX 01 00:55:26
  TRACK 64 AUDIO
    TITLE "0:"
    INDEX 01 00:56:45
  TRACK 65 AUDIO
    TITLE "4:cjc030_01913"
    INDEX 01 00:56:51
  TRACK 66 AUDIO
    TITLE "0:"
    INDEX 01 00:59:53
  TRACK 67 AUDIO
    TITLE "5:cjc030_01914"
    INDEX 01 00:59:61
  TRACK 68 AUDIO
    TITLE "0:"
    INDEX 01 01:01:07
  TRACK 69 AUDIO
    TITLE "6:cjc030_01915"
    INDEX 01 01:01:19
  TRACK 70 AUDIO
    TITLE "0:"
    INDEX 01 01:04:11
  TRACK 71 AUDIO
    TITLE "3:cjc030_01916"
    INDEX 01 01:04:58
  TRACK 72 AUDIO
    TITLE "0:"
    INDEX 01 01:06:08
  TRACK 73 AUDIO
    TITLE "4:cjc030_01917"
    INDEX 01 01:06:18
  TRACK 74 AUDIO
    TITLE "0:"
    INDEX 01 01:07:21
  TRACK 75 AUDIO
    TITLE "5:cjc030_01918"
    INDEX 01 01:07:29
  TRACK 76 AUDIO
    TITLE "0:"
    INDEX 01 01:08:56
  TRACK 77 AUDIO
    TITLE "6:cjc030_01919"
    INDEX 01 01:08:70
  TRACK 78 AUDIO
    TITLE "0:"
    INDEX 01 01:12:64
  TRACK 79 AUDIO
    TITLE "3:cjc030_01920"
    INDEX 01 01:13:38
  TRACK 80 AUDIO
    TITLE "0:"
    INDEX 01 01:14:74
  TRACK 81 AUDIO
    TITLE "4:cjc030_01921"
    INDEX 01 01:15:07
  TRACK 82 AUDIO
    TITLE "0:"
    INDEX 01 01:17:20
  TRACK 83 AUDIO
    TITLE "5:cjc030_01922"
    INDEX 01 01:17:28
  TRACK 84 AUDIO
    TITLE "0:"
    INDEX 01 01:18:64
  TRACK 85 AUDIO
    TITLE "6:cjc030_01923"
    INDEX 01 01:19:03
  TRACK 86 AUDIO
    TITLE "0:"
    INDEX 01 01:21:47
  TRACK 87 AUDIO
    TITLE "3:cjc030_01924"
    INDEX 01 01:22:21
  TRACK 88 AUDIO
    TITLE "0:"
    INDEX 01 01:23:40
  TRACK 89 AUDIO
    TITLE "4:cjc030_01925"
    INDEX 01 01:23:50
  TRACK 90 AUDIO
    TITLE "0:"
    INDEX 01 01:25:70
  TRACK 91 AUDIO
    TITLE "5:cjc030_01926"
    INDEX 01 01:26:05
  TRACK 92 AUDIO
    TITLE "0:"
    INDEX 01 01:27:26
  TRACK 93 AUDIO
    TITLE "3:cjc030_01927"
    INDEX 01 01:28:00
  TRACK 94 AUDIO
    TITLE "0:"
    INDEX 01 01:29:23
  TRACK 95 AUDIO
    TITLE "4:cjc030_01928"
    INDEX 01 01:29:29
  TRACK 96 AUDIO
    TITLE "0:"
    INDEX 01 01:30:62
  TRACK 97 AUDIO
    TITLE "5:cjc030_01929"
    INDEX 01 01:30:71
  TRACK 98 AUDIO
    TITLE "0:"
    INDEX 01 01:32:19
  TRACK 99 AUDIO
    TITLE "6:cjc030_01930"
    INDEX 01 01:32:31
  TRACK 100 AUDIO
    TITLE "0:"
    INDEX 01 01:35:39
